<svg version="1.2" baseProfile="tiny-ps" xmlns="http://www.w3.org/2000/svg" viewBox="0 0 478 512" width="478" height="512">
	<title>image</title>
	<style>
		tspan { white-space:pre }
		.shp0 { fill: #103c54 } 
		.shp1 { fill: #335410 } 
	</style>
	<g id="Layer 1">
		<path id="Path 0" fill-rule="evenodd" class="shp0" d="M364.5 0.07L370.36 3.28C373.58 5.05 377.25 7.85 378.51 9.5C379.77 11.15 381.74 14.52 382.88 17C384.94 21.46 384.96 22.44 385 223L369 223L368.5 23.04L361.96 16.5L194.48 16.25C47.45 16.03 26.57 16.18 23.5 17.5C21.52 18.35 19.35 20.3 18.5 22C17.18 24.64 17.03 51.84 17.5 478.16L24 484L251.5 484.05L253.82 490.77C255.09 494.47 256.33 498.29 256.57 499.25C256.98 500.91 250.96 500.99 139.25 500.75C29.51 500.52 21.24 500.38 17.75 498.75C15.69 497.79 12.09 495.27 9.75 493.15C7.41 491.02 4.49 486.98 1 479L1.5 18.5L4.25 13.75C5.76 11.14 8.46 7.9 10.25 6.55C12.04 5.2 15.3 3.2 17.5 2.09C21.46 0.1 23.18 0.08 364.5 0.07ZM192.75 53C325 53 327.06 53.03 331 55C333.83 56.41 335.58 58.24 336.99 61.25C338.87 65.28 338.97 67.72 338.99 108.5C339.02 151.19 339 151.53 336.76 155.93C335.34 158.71 333.2 161.03 331 162.18C327.66 163.92 321.34 164.01 193.25 164C84.57 164 58.38 163.75 55.75 162.68C53.96 161.96 51.38 159.82 47.5 154.5L47 64.5L49.62 60.65C51.06 58.53 53.65 55.94 55.37 54.89C58.4 53.05 62.64 52.99 192.75 53ZM64 148L322 148L322 69L64 69L64 148ZM290.11 82.89L299.5 83.5L299.5 133.5L290 134L290.11 82.89ZM90.25 210.97C114.1 210.93 115.65 211.04 121 215L121 237.5C121 258.67 120.88 260.12 119 262C117.9 263.1 115.54 264.25 113.75 264.56C111.96 264.87 100.27 264.98 87.78 264.81C65.67 264.51 64.99 264.44 62.78 262.22C60.58 260.03 60.49 259.23 60.2 239.72C60.03 228.6 60.14 218.49 60.45 217.25C60.75 216.01 61.9 214.1 63 213C64.89 211.11 66.36 211 90.25 210.97ZM192.95 211.02C218.01 211.04 218.54 211.08 220.78 213.27C223.01 215.46 223.05 215.94 223.07 237.5C223.08 257.82 222.94 259.69 219.18 264.5L193.19 264.5C168.59 264.5 167.1 264.39 165.07 262.5C163.02 260.58 162.93 259.61 162.66 215.08L165.03 213.04C167.27 211.1 168.65 211 192.95 211.02ZM295.4 210.98C319.19 210.96 320.62 211.07 322.75 212.98C324.86 214.88 325 215.78 325 228C325 240.07 324.82 241.34 322.43 245.75C321.01 248.36 316.29 253.76 304 265L286.41 264.75C268.97 264.5 268.8 264.48 266.87 262C265.07 259.7 264.91 257.75 264.81 215.15L267.56 213.07C270.17 211.11 271.58 211 295.4 210.98Z" />
		<path id="Path 1" class="shp1" d="M365.5 249.91C362.75 250.34 358.7 251.27 356.5 251.97C354.3 252.67 351.04 254.15 349.26 255.26C346.32 257.08 346.07 257.61 346.6 260.88C346.92 262.87 348.73 269.68 350.61 276C352.5 282.32 353.81 287.61 353.52 287.75C353.23 287.89 351.24 284.51 349.08 280.25C346.93 275.99 344.57 271.66 343.83 270.64C342.54 268.84 342.37 268.85 338.25 270.89C335.91 272.05 331.98 275.02 329.5 277.5C325.78 281.22 325 282.65 324.99 285.75C324.98 289.12 326.47 291.29 339.52 307C347.52 316.63 354.39 324.48 354.78 324.45C355.18 324.43 358.2 323.59 361.5 322.58C365.75 321.29 369.39 320.9 374 321.24C380.36 321.71 380.58 321.65 384.38 318.11C388.07 314.67 388.23 314.61 387.75 317C387.48 318.38 386.97 320.29 386.63 321.25C386.11 322.7 386.89 323.18 391.25 324.08C394.14 324.67 396.56 325 396.63 324.83C396.71 324.65 402.95 317.3 410.5 308.5C418.06 299.7 424.9 290.93 425.7 289C426.98 285.92 426.98 285.03 425.64 281.5C424.8 279.3 422.29 275.81 420.06 273.75C417.83 271.69 415.66 269.99 415.25 269.97C414.84 269.96 412.7 272.42 410.5 275.45C408.3 278.48 406.16 280.97 405.75 280.98C405.34 280.99 405.18 280.44 405.41 279.75C405.63 279.06 407.66 274.11 409.91 268.75C412.16 263.39 414 258.55 414 258C414 257.45 412.2 256.1 410 255C407.8 253.9 403.19 252.32 399.75 251.48C396.31 250.65 388.32 249.77 382 249.54C375.68 249.3 368.25 249.47 365.5 249.91Z" />
		<path id="Path 2" class="shp0" d="M62.4 306.1C60.65 308.04 60.5 310.02 60.5 330.69L60.5 353.18C65.33 356.95 67.21 357.08 90.5 357.08C114.07 357.07 115.66 356.95 118.25 355.03L121 353C121 309.33 120.88 307.88 119 306C117.1 304.1 115.67 304 90.65 304C65.12 304 64.24 304.07 62.4 306.1ZM164.47 305.83C162.79 307.5 162.65 309.56 162.82 330.33C162.99 351.53 163.13 353.13 165 355C166.9 356.9 168.35 357 192.75 357.03C218.24 357.05 218.52 357.03 220.73 354.78C222.9 352.56 222.96 351.89 222.99 330.5C223.01 312.52 222.74 308.09 221.51 306.25C220.01 304.01 219.88 304 193.15 304C168.47 304 166.15 304.15 164.47 305.83ZM267 306C265.12 307.88 265 309.35 264.97 330.25C264.95 352.1 264.99 352.54 267.22 354.73C269.29 356.76 270.5 356.96 280.5 357L291.5 357.03C300.8 345.94 307.47 339.07 312.33 334.61L321.16 326.5L302.5 303.98C270.34 304 268.84 304.16 267 306Z" />
		<path id="Path 3" fill-rule="evenodd" class="shp1" d="M370.08 329L379.5 328.98L384.29 338.74C386.93 344.11 389.32 348.27 389.6 348C389.89 347.73 389.31 343.8 388.31 339.29C387.32 334.77 386.73 330.82 387 330.51C387.27 330.2 388.85 330.28 390.5 330.68C392.15 331.08 396.88 333.63 401 336.35C405.13 339.07 413.5 346.29 419.61 352.4C425.72 358.5 434.27 368 438.62 373.5C442.97 379 449.05 387.32 452.13 392C455.21 396.68 459.76 404.55 462.23 409.5C464.7 414.45 468.32 422.55 470.27 427.5C472.22 432.45 474.53 439.99 475.41 444.25C476.28 448.51 477 455.94 477.01 460.75C477.01 465.56 476.33 472.09 475.51 475.25C474.68 478.41 473.03 482.91 471.83 485.25C470.64 487.59 467.6 491.69 465.08 494.36C462.56 497.03 458.48 500.39 456 501.82C453.52 503.25 448.8 505.24 445.5 506.25C442.2 507.26 432.52 508.96 424 510.04C411.77 511.59 402.38 512 379.5 511.99C360.66 511.99 344.72 511.43 334 510.4C324.93 509.53 314.13 507.95 310 506.89C305.88 505.84 300.25 503.88 297.5 502.55C294.75 501.22 290.32 498.19 287.65 495.82C284.93 493.39 281.79 489.31 280.5 486.5C279.22 483.75 277.47 478.01 276.59 473.75C275.72 469.49 274.99 462.96 274.99 459.25C274.98 455.54 275.65 448.9 276.47 444.5C277.29 440.1 278.9 433.57 280.05 430C281.2 426.43 284.61 418.32 287.63 412C290.65 405.68 295.99 396.23 299.49 391C302.99 385.77 308.75 377.9 312.3 373.5C315.84 369.1 323.41 361 329.12 355.5C334.83 350 342.2 343.41 345.5 340.85C348.8 338.3 354.2 334.8 357.5 333.09C360.8 331.37 363.61 330.2 363.75 330.48C363.89 330.77 362.43 333.93 360.5 337.5C358.57 341.07 357.23 344.23 357.5 344.5C357.77 344.77 360.72 341.4 364.04 337L370.08 329ZM371.92 375.68C372.01 378.32 371.66 378.58 366.26 379.73C363.09 380.4 358.36 382.32 355.75 383.98C352.77 385.87 349.99 388.77 348.29 391.75C346.18 395.46 345.51 398.14 345.22 404C344.88 410.68 345.15 412.1 347.67 417C349.59 420.74 351.94 423.47 355 425.53C357.48 427.2 362.31 429.45 365.74 430.53L371.98 432.5L372 463C367.74 460.88 365.36 458.97 363.97 457.38C362.57 455.8 360.6 452.25 359.57 449.5C358.55 446.75 356.77 443.69 355.61 442.71C354.45 441.72 352.04 440.93 350.25 440.96C348.38 440.98 346.15 441.85 345 443C343.9 444.1 342.74 446.01 342.42 447.25C342.11 448.49 342.32 451.3 342.89 453.5C343.46 455.7 345.24 459.52 346.84 462C348.45 464.48 351.96 467.93 354.63 469.68C357.31 471.44 362.32 473.69 365.77 474.68C371.94 476.47 372.04 476.56 372 480C371.98 481.93 372.54 484.32 373.23 485.33C374.03 486.48 375.42 487.04 377 486.83C379.27 486.53 379.52 486.01 379.75 481.25L380 476C388.14 474.44 392.3 473.04 394.5 471.89C396.7 470.74 399.78 468.6 401.34 467.15C402.91 465.69 405.37 462.25 406.82 459.5C408.97 455.41 409.45 453.14 409.47 447C409.5 440.49 409.11 438.8 406.5 434.2C404.85 431.28 401.7 427.61 399.5 426.04C397.3 424.46 392.13 422.07 388 420.72L380.5 418.27C380.06 395.17 380.3 391.99 381.25 391.97C381.94 391.95 383.81 392.96 385.41 394.22C387 395.47 389.37 398.86 390.66 401.75C391.94 404.64 393.9 407.45 395 408C396.1 408.55 398.15 409 399.55 409C400.95 409 403.2 407.88 404.55 406.5C405.97 405.05 406.99 402.85 406.98 401.25C406.97 399.74 406.13 396.7 405.13 394.5C404.12 392.3 401.32 388.66 398.9 386.41C395.9 383.62 392.59 381.75 388.5 380.53C385.2 379.55 381.94 378.58 381.25 378.37C380.56 378.17 380.01 376.54 380.02 374.75C380.03 372.96 379.46 370.93 378.77 370.23C378.07 369.54 376.73 368.97 375.78 368.98C374.83 368.99 373.55 369.87 372.94 370.93C372.32 372 371.87 374.14 371.92 375.68ZM371.75 391.08C371.89 391.04 372 396.63 372 416L368 414C365.8 412.9 363.32 410.99 362.49 409.75C361.66 408.51 360.97 405.7 360.96 403.5C360.94 401.12 361.72 398.37 362.88 396.71C363.95 395.18 366.33 393.3 368.17 392.54C370 391.78 371.61 391.13 371.75 391.08Z" />
		<path id="Path 4" class="shp0" d="M63 398C61.9 399.1 60.75 401.01 60.45 402.25C60.14 403.49 60.03 413.6 60.2 424.72C60.49 444.24 60.58 445.03 62.78 447.22C65.03 449.48 65.34 449.5 91.12 449.5L117.18 449.5C120.94 444.69 121.08 442.84 121.04 422.75L121 401L116 396C66.33 396 64.9 396.1 63 398ZM165.03 398.04L162.66 400.08C162.93 444.61 163.02 445.58 165.07 447.5C167.1 449.39 168.59 449.5 193 449.5C217.41 449.5 218.9 449.39 220.93 447.5C222.99 445.57 223.06 444.72 223.03 422.75L223 400C217.65 396.04 216.1 395.93 192.45 395.97C168.7 396 167.27 396.11 165.03 398.04Z" />
		<path id="Path 5" class="shp1" d="M380 449C380 461.67 380.17 463 381.75 463C382.71 462.99 384.96 462.09 386.75 461C388.54 459.9 390.9 457.54 392 455.75C393.09 453.96 393.99 450.93 393.99 449C393.99 447.07 393.18 444.15 392.19 442.5C391.19 440.84 388.28 438.49 385.69 437.25C383.11 436.01 380.77 435 380.5 435C380.23 435 380 441.3 380 449Z" />
	</g>
</svg>